HIERARCHY
ROOT Hips
{
	OFFSET 0.000000 0.000000 0.000000
	CHANNELS 6 Xposition Yposition Zposition Zrotation Yrotation Xrotation 
	JOINT LHipJoint
	{
		OFFSET 0.000000 0.000000 0.000000
		CHANNELS 3 Zrotation Yrotation Xrotation
		JOINT LeftUpLeg
		{
			OFFSET 1.363060 -1.794630 0.839290
			CHANNELS 3 Zrotation Yrotation Xrotation
			JOINT LeftLeg
			{
				OFFSET 2.448110 -6.726130 0.000000
				CHANNELS 3 Zrotation Yrotation Xrotation
				JOINT LeftFoot
				{
					OFFSET 2.562200 -7.039590 0.000000
					CHANNELS 3 Zrotation Yrotation Xrotation
					JOINT LeftToeBase
					{
						OFFSET 0.157640 -0.433110 2.322550
						CHANNELS 3 Zrotation Yrotation Xrotation
						End Site
						{
							OFFSET 0.000000 0.000000 0.000000
						}
					}
				}
			}
		}
	}
	JOINT RHipJoint
	{
		OFFSET 0.000000 0.000000 0.000000
		CHANNELS 3 Zrotation Yrotation Xrotation
		JOINT RightUpLeg
		{
			OFFSET -1.305520 -1.794630 0.839290
			CHANNELS 3 Zrotation Yrotation Xrotation
			JOINT RightLeg
			{
				OFFSET -2.542530 -6.985550 0.000000
				CHANNELS 3 Zrotation Yrotation Xrotation
				JOINT RightFoot
				{
					OFFSET -2.568260 -7.056230 0.000000
					CHANNELS 3 Zrotation Yrotation Xrotation
					JOINT RightToeBase
					{
						OFFSET -0.164730 -0.452590 2.363150
						CHANNELS 3 Zrotation Yrotation Xrotation
						End Site
						{
							OFFSET 0.000000 0.000000 0.000000
						}
					}
				}
			}
		}
	}
	JOINT LowerBack
	{
		OFFSET 0.000000 0.000000 0.000000
		CHANNELS 3 Zrotation Yrotation Xrotation
		JOINT Spine
		{
			OFFSET 0.028270 2.035590 -0.193380
			CHANNELS 3 Zrotation Yrotation Xrotation
			JOINT Spine1
			{
				OFFSET 0.056720 2.048850 -0.042750
				CHANNELS 3 Zrotation Yrotation Xrotation
				JOINT Neck
				{
					OFFSET 0.000000 0.000000 0.000000
					CHANNELS 3 Zrotation Yrotation Xrotation
					JOINT Neck1
					{
						OFFSET -0.054170 1.746240 0.172020
						CHANNELS 3 Zrotation Yrotation Xrotation
						JOINT Head
						{
							OFFSET 0.104070 1.761360 -0.123970
							CHANNELS 3 Zrotation Yrotation Xrotation
							End Site
							{
								OFFSET 0.000000 0.000000 0.000000
							}
						}
					}
				}
				JOINT LeftShoulder
				{
					OFFSET 0.000000 0.000000 0.000000
					CHANNELS 3 Zrotation Yrotation Xrotation
					JOINT LeftArm
					{
						OFFSET 3.362410 1.200890 -0.311210
						CHANNELS 3 Zrotation Yrotation Xrotation
						JOINT LeftForeArm
						{
							OFFSET 4.983000 -0.000000 -0.000000
							CHANNELS 3 Zrotation Yrotation Xrotation
							JOINT LeftHand
							{
								OFFSET 3.483560 -0.000000 -0.000000
								CHANNELS 3 Zrotation Yrotation Xrotation
								JOINT LeftFingerBase
								{
									OFFSET 0.000000 0.000000 0.000000
									CHANNELS 3 Zrotation Yrotation Xrotation
									JOINT LeftHandIndex1
									{
										OFFSET 0.715260 -0.000000 -0.000000
										CHANNELS 3 Zrotation Yrotation Xrotation
										End Site
										{
											OFFSET 0.000000 0.000000 0.000000
										}
									}
								}
								JOINT LThumb
								{
									OFFSET 0.000000 0.000000 0.000000
									CHANNELS 3 Zrotation Yrotation Xrotation
									End Site
									{
										OFFSET 0.000000 0.000000 0.000000
									}
								}
							}
						}
					}
				}
				JOINT RightShoulder
				{
					OFFSET 0.000000 0.000000 0.000000
					CHANNELS 3 Zrotation Yrotation Xrotation
					JOINT RightArm
					{
						OFFSET -3.136600 1.374050 -0.404650
						CHANNELS 3 Zrotation Yrotation Xrotation
						JOINT RightForeArm
						{
							OFFSET -5.241900 -0.000000 -0.000000
							CHANNELS 3 Zrotation Yrotation Xrotation
							JOINT RightHand
							{
								OFFSET -3.444170 -0.000000 -0.000000
								CHANNELS 3 Zrotation Yrotation Xrotation
								JOINT RightFingerBase
								{
									OFFSET 0.000000 0.000000 0.000000
									CHANNELS 3 Zrotation Yrotation Xrotation
									JOINT RightHandIndex1
									{
										OFFSET -0.622530 -0.000000 -0.000000
										CHANNELS 3 Zrotation Yrotation Xrotation
										End Site
										{
											OFFSET 0.000000 0.000000 0.000000
										}
									}
								}
								JOINT RThumb
								{
									OFFSET 0.000000 0.000000 0.000000
									CHANNELS 3 Zrotation Yrotation Xrotation
									End Site
									{
										OFFSET 0.000000 0.000000 0.000000
									}
								}
							}
						}
					}
				}
			}
		}
	}
}
MOTION
Frames: 11
Frame Time: 0.008333
0.506582 17.484358 27.971921 5.220364 0.424304 1.673515 0.090502 2.345025 2.240666 -28.148505 -1.097286 2.312543 -0.082215 5.254232 18.163085 1.758319 -5.626002 -2.983677 0.148897 2.480950 6.837187 -2.022175 -2.043100 0.423453 14.751433 9.589015 -29.968001 -0.373293 -6.877186 18.370092 2.057856 -11.424004 4.110500 -0.146913 2.461446 -6.783168 -5.536158 -1.001719 3.915388 0.925522 -1.815314 -1.441671 6.259307 -0.772305 -1.546168 -8.290832 -2.210479 -11.238169 3.611078 -1.823823 13.622791 3.018491 -1.382797 9.152784 -7.346502 2.786882 -2.254891 -79.373902 -5.666176 27.683728 13.020280 -24.029719 -3.663224 -1.336199 -3.073682 5.568124 18.249704 20.095409 7.895885 -7.125000 0.000000 0.000000 -10.385402 54.216972 -2.374958 6.016548 -2.469941 -2.250967 82.573378 -6.601607 4.406433 -12.992347 20.187654 -3.166893 0.705128 -0.317861 10.563944 -10.647555 8.507652 -1.741927 7.125000 0.000000 0.000000 11.144586 -21.200182 6.480885
0.498438 17.478491 28.055452 5.111601 0.341410 1.760876 0.078255 2.367219 2.265718 -27.987103 -0.981780 2.618816 -0.121514 5.137297 17.850628 1.745854 -5.581590 -2.931956 0.152200 2.512064 6.923279 -1.998052 -2.047494 0.417849 14.735355 9.985898 -29.688207 -0.208827 -6.424794 17.103126 2.006014 -11.206897 4.181796 -0.170584 2.657843 -7.327749 -5.449427 -1.001564 3.893031 0.942798 -1.810703 -1.458716 6.283768 -0.768828 -1.584556 -8.282158 -2.176873 -11.274140 3.629119 -1.778836 13.621450 3.029067 -1.359229 9.161010 -7.319732 2.781922 -2.272453 -79.317258 -5.665565 27.864102 13.258545 -24.389747 -3.795833 -1.289607 -3.111152 5.413753 18.026224 20.493826 7.914551 -7.125000 0.000000 0.000000 -10.838588 54.601093 -2.582311 6.021761 -2.470385 -2.246937 82.609346 -6.633359 4.034685 -12.903934 20.055957 -3.119844 0.719945 -0.369616 10.522608 -10.791509 8.927525 -1.863535 7.125000 0.000000 0.000000 11.001404 -20.725813 6.513573
0.489959 17.470826 28.137041 4.938376 0.254209 1.864860 0.066250 2.391321 2.291468 -27.749267 -0.822904 2.889196 -0.161544 5.018150 17.530625 1.734594 -5.536655 -2.886231 0.139500 2.406107 6.629532 -1.976527 -2.052569 0.412600 14.771749 10.437933 -29.425670 -0.062342 -5.995156 15.912230 1.952912 -10.985674 4.244701 -0.189873 2.804238 -7.734414 -5.282904 -0.991815 3.843639 0.959883 -1.787806 -1.471553 6.267003 -0.757680 -1.602975 -8.265309 -2.133724 -11.309296 3.682888 -1.726706 13.625620 3.056911 -1.328515 9.170149 -7.297120 2.776916 -2.287796 -79.243182 -5.707825 28.035588 13.476119 -24.713491 -3.917355 -1.247651 -3.144768 5.327435 17.807318 20.877133 7.926986 -7.125000 0.000000 0.000000 -11.285214 54.967055 -2.790719 6.029116 -2.469581 -2.240177 82.670886 -6.639597 3.628877 -12.796057 19.893651 -3.062451 0.738713 -0.429862 10.394190 -10.961076 9.425421 -2.009559 7.125000 0.000000 0.000000 10.833806 -20.162921 6.551089
0.480522 17.458782 28.221354 4.877635 0.246035 1.911314 0.061214 2.417304 2.317791 -27.634941 -0.584115 3.238855 -0.195916 4.899175 17.219459 1.704549 -5.396924 -2.926320 0.096466 1.901527 5.236460 -1.958823 -2.059934 0.408633 14.692144 10.787210 -29.156950 0.054848 -5.621136 14.883608 1.903963 -10.782650 4.311034 -0.232191 3.085031 -8.516853 -5.240452 -1.013989 3.870656 0.971669 -1.816759 -1.491936 6.295845 -0.769109 -1.678852 -8.288766 -2.161541 -11.277311 3.706480 -1.763366 13.613073 3.068059 -1.344940 9.167127 -7.277489 2.778233 -2.302786 -79.222621 -5.664157 28.091970 13.681902 -25.016792 -4.035364 -1.230851 -3.149075 5.312782 17.749468 20.963744 7.922148 -7.125000 0.000000 0.000000 -11.400110 55.043603 -2.839001 6.029379 -2.471164 -2.237557 82.707724 -6.734438 3.274285 -12.720937 19.781452 -3.022522 0.752185 -0.455477 10.312471 -11.069588 9.624744 -2.076887 7.125000 0.000000 0.000000 10.734073 -19.934674 6.545748
0.470629 17.444649 28.306965 4.870521 0.275537 1.930340 0.059499 2.444183 2.344386 -27.579498 -0.307228 3.626310 -0.227590 4.780283 16.912506 1.665549 -5.212000 -3.007320 0.038971 1.206906 3.319291 -1.942940 -2.068389 0.405277 14.557239 11.087496 -28.885283 0.158073 -5.273633 13.932348 1.856993 -10.588303 4.379002 -0.285489 3.429897 -9.478440 -5.257149 -1.051383 3.934100 0.980928 -1.870431 -1.515917 6.346429 -0.791302 -1.782122 -8.331439 -2.223190 -11.213315 3.715685 -1.842357 13.592556 3.071247 -1.383837 9.158306 -7.259279 2.782564 -2.317609 -79.227573 -5.579524 28.093477 13.882063 -25.310346 -4.151699 -1.226044 -3.139410 5.332296 17.768399 20.908907 7.909076 -7.125000 0.000000 0.000000 -11.356855 54.982176 -2.810944 6.026260 -2.473883 -2.236911 82.732785 -6.871520 2.944109 -12.661435 19.693140 -2.990917 0.763131 -0.464584 10.253017 -11.148992 9.681725 -2.106697 7.125000 0.000000 0.000000 10.666694 -19.865966 6.519976
0.463633 17.433327 28.394608 4.903667 0.349545 1.921304 0.064051 2.471582 2.366933 -27.573987 -0.102274 4.119827 -0.261667 4.650148 16.578379 1.628371 -5.045699 -3.075502 0.015705 0.627822 1.725830 -1.937613 -2.076851 0.401757 14.436344 11.208347 -28.688376 0.228936 -5.027072 13.272179 1.785103 -10.233580 4.126630 -0.300034 3.521714 -9.734801 -5.296933 -1.105362 3.997456 0.990612 -1.944612 -1.514027 6.394834 -0.831628 -1.789831 -8.303432 -2.220683 -11.316521 3.667163 -1.833620 13.606369 3.040924 -1.381362 9.188702 -7.240553 2.776330 -2.325880 -79.226395 -5.590012 28.184055 14.032076 -25.530592 -4.244143 -1.236222 -3.104322 5.112505 17.952948 20.493944 7.861182 -7.125000 0.000000 0.000000 -10.946409 54.565220 -2.601341 6.029003 -2.479978 -2.238803 82.728627 -6.923868 2.695808 -12.638919 19.658629 -2.977351 0.771831 -0.457361 10.259302 -11.219359 9.597388 -2.100925 7.125000 0.000000 0.000000 10.615669 -19.955985 6.466017
0.457381 17.422727 28.482775 4.947178 0.435010 1.905044 0.070215 2.499114 2.388438 -27.581330 0.084163 4.640646 -0.296362 4.517118 16.237256 1.591661 -4.884193 -3.140384 0.001252 0.078481 0.215699 -1.935003 -2.085314 0.398196 14.319056 11.283007 -28.510714 0.291468 -4.806497 12.686945 1.706797 -9.837572 3.791794 -0.304604 3.548390 -9.809620 -5.342660 -1.163610 4.060789 1.000404 -2.024073 -1.505478 6.442678 -0.876623 -1.772941 -8.257231 -2.201661 -11.462768 3.603781 -1.802300 13.629019 3.001974 -1.368237 9.229193 -7.221694 2.767376 -2.332465 -79.223638 -5.624987 28.297563 14.169179 -25.731967 -4.330439 -1.250257 -3.062690 4.831111 18.180131 19.986274 7.804325 -7.125000 0.000000 0.000000 -10.441438 54.056741 -2.345003 6.033255 -2.486941 -2.241349 82.716948 -6.954404 2.468583 -12.625924 19.637967 -2.968429 0.779954 -0.445936 10.282511 -11.287399 9.476674 -2.085993 7.125000 0.000000 0.000000 10.568855 -20.086864 6.404802
0.452918 17.408255 28.570891 4.934333 0.453262 1.910047 0.079044 2.524580 2.407218 -27.542517 0.204674 5.146275 -0.323791 4.405515 15.954903 1.573941 -4.809336 -3.187852 0.004756 -0.294288 -0.808688 -1.941725 -2.093242 0.396385 14.346988 11.259226 -28.435724 0.329864 -4.676371 12.358295 1.604434 -9.313622 3.193243 -0.255203 3.233472 -8.930908 -5.308487 -1.211093 4.045540 1.015848 -2.082273 -1.489325 6.451688 -0.914141 -1.692225 -8.128702 -2.036528 -11.655823 3.524645 -1.588568 13.727126 2.958898 -1.268573 9.290651 -7.207923 2.753398 -2.333982 -79.216110 -5.716915 28.462821 14.221576 -25.811347 -4.367490 -1.283549 -3.008426 4.430238 18.562394 19.278721 7.742079 -7.125000 0.000000 0.000000 -9.696458 53.355917 -2.019792 6.049772 -2.500291 -2.244245 82.675737 -6.923909 2.177727 -12.581302 19.580885 -2.950151 0.764903 -0.462385 10.463458 -11.172652 9.584572 -2.089554 7.125000 0.000000 0.000000 10.652358 -19.967639 6.486476
0.448483 17.393426 28.658847 4.918461 0.464977 1.917638 0.088109 2.549529 2.425596 -27.501762 0.315461 5.645818 -0.349869 4.298196 15.684138 1.557996 -4.742638 -3.233268 0.010190 -0.648054 -1.780831 -1.949205 -2.101080 0.394812 14.385203 11.231128 -28.369682 0.365331 -4.556521 12.057918 1.503344 -8.794118 2.579911 -0.201403 2.889369 -7.970839 -5.271258 -1.256716 4.025038 1.031596 -2.137800 -1.473576 6.459300 -0.950217 -1.610397 -7.993406 -1.860381 -11.846345 3.444355 -1.361659 13.829051 2.915282 -1.162587 9.351606 -7.194648 2.739129 -2.335180 -79.207842 -5.810772 28.635334 14.266743 -25.880276 -4.400180 -1.318620 -2.953676 4.021119 18.958977 18.560987 7.681620 -7.125000 0.000000 0.000000 -8.933867 52.646173 -1.692291 6.067345 -2.514022 -2.247122 82.631435 -6.890520 1.882390 -12.532724 19.518642 -2.930442 0.747964 -0.481255 10.657556 -11.042787 9.711636 -2.094718 7.125000 0.000000 0.000000 10.746582 -19.827369 6.580031
0.439732 17.378913 28.742013 4.973825 0.471677 1.942807 0.096689 2.564619 2.439586 -27.535875 0.319461 6.002498 -0.355571 4.260124 15.598355 1.541256 -4.674199 -3.266378 0.022571 -0.932343 -2.562864 -1.952790 -2.107675 0.395408 14.316156 11.357376 -28.279392 0.381069 -4.488925 11.878767 1.511520 -8.784404 2.281007 -0.169732 2.643925 -7.289449 -5.373066 -1.276527 4.072160 1.040197 -2.173119 -1.492449 6.537197 -0.963726 -1.680503 -7.890082 -1.771600 -11.822474 3.374525 -1.261464 13.828378 2.867086 -1.114550 9.335931 -7.181801 2.730564 -2.341306 -79.190705 -5.797844 28.880042 14.336565 -25.983568 -4.442383 -1.352229 -2.920802 3.706816 19.343668 18.113030 7.691769 -7.125000 0.000000 0.000000 -8.329581 52.223034 -1.495149 6.081640 -2.520849 -2.248355 82.578202 -6.946111 1.634794 -12.454744 19.403878 -2.894032 0.740528 -0.493272 10.796096 -10.981058 9.761380 -2.095303 7.125000 0.000000 0.000000 10.790474 -19.769236 6.622275
0.430078 17.365977 28.824641 4.997622 0.473528 1.978696 0.103794 2.579339 2.453321 -27.531033 0.306595 6.325313 -0.359678 4.230402 15.533447 1.524663 -4.607749 -3.281681 0.033553 -1.181819 -3.249166 -1.956411 -2.114174 0.395266 14.278233 11.519314 -28.194914 0.393878 -4.431217 11.723708 1.533158 -8.844559 2.083262 -0.148778 2.480546 -6.835941 -5.448226 -1.296334 4.113902 1.052480 -2.206676 -1.509067 6.614393 -0.977222 -1.739427 -7.800404 -1.696648 -11.820995 3.316981 -1.176198 13.826392 2.825997 -1.073096 9.326654 -7.168934 2.721254 -2.347207 -79.172777 -5.804930 29.103215 14.407927 -26.087881 -4.485295 -1.382155 -2.890783 3.424359 19.688971 17.708407 7.699271 -7.125000 0.000000 0.000000 -7.786993 51.839796 -1.318286 6.096738 -2.525244 -2.248386 82.532096 -6.973325 1.376329 -12.377376 19.287598 -2.857224 0.734233 -0.504688 10.938680 -10.932206 9.802079 -2.096380 7.125000 0.000000 0.000000 10.824978 -19.720388 6.656252
